<mxfile host="app.diagrams.net" modified="2023-08-29T23:02:36.828Z" agent="Mozilla/5.0 (Windows NT 10.0; Win64; x64) AppleWebKit/537.36 (KHTML, like Gecko) Chrome/116.0.0.0 Safari/537.36 Edg/116.0.1938.62" etag="RNDgVzNlOIDrW02m9uVj" version="21.7.0" type="github">
  <diagram name="Page-1" id="FEHvpJru99X4V2HBFaW-">
    <mxGraphModel dx="832" dy="491" grid="1" gridSize="10" guides="1" tooltips="1" connect="1" arrows="1" fold="1" page="1" pageScale="1" pageWidth="850" pageHeight="1100" math="0" shadow="0">
      <root>
        <mxCell id="0" />
        <mxCell id="1" parent="0" />
        <mxCell id="x7zrCxfJBzDlaxN9OBmy-8" style="edgeStyle=orthogonalEdgeStyle;rounded=0;orthogonalLoop=1;jettySize=auto;html=1;exitX=0.875;exitY=0.5;exitDx=0;exitDy=0;exitPerimeter=0;entryX=0;entryY=0.5;entryDx=0;entryDy=0;" edge="1" parent="1" source="x7zrCxfJBzDlaxN9OBmy-1" target="x7zrCxfJBzDlaxN9OBmy-2">
          <mxGeometry relative="1" as="geometry" />
        </mxCell>
        <mxCell id="x7zrCxfJBzDlaxN9OBmy-1" value="Internet" style="ellipse;shape=cloud;whiteSpace=wrap;html=1;" vertex="1" parent="1">
          <mxGeometry x="140" y="230" width="120" height="80" as="geometry" />
        </mxCell>
        <mxCell id="x7zrCxfJBzDlaxN9OBmy-9" style="edgeStyle=orthogonalEdgeStyle;rounded=0;orthogonalLoop=1;jettySize=auto;html=1;exitX=1;exitY=0.5;exitDx=0;exitDy=0;entryX=0;entryY=0.5;entryDx=0;entryDy=0;" edge="1" parent="1" source="x7zrCxfJBzDlaxN9OBmy-2" target="x7zrCxfJBzDlaxN9OBmy-3">
          <mxGeometry relative="1" as="geometry" />
        </mxCell>
        <mxCell id="x7zrCxfJBzDlaxN9OBmy-2" value="Router/Modem&lt;br&gt;192.168.1.1" style="rounded=0;whiteSpace=wrap;html=1;" vertex="1" parent="1">
          <mxGeometry x="320" y="240" width="120" height="60" as="geometry" />
        </mxCell>
        <mxCell id="x7zrCxfJBzDlaxN9OBmy-10" style="edgeStyle=orthogonalEdgeStyle;rounded=0;orthogonalLoop=1;jettySize=auto;html=1;exitX=1;exitY=0.5;exitDx=0;exitDy=0;entryX=0;entryY=0.5;entryDx=0;entryDy=0;" edge="1" parent="1" source="x7zrCxfJBzDlaxN9OBmy-3" target="x7zrCxfJBzDlaxN9OBmy-4">
          <mxGeometry relative="1" as="geometry" />
        </mxCell>
        <mxCell id="x7zrCxfJBzDlaxN9OBmy-11" style="edgeStyle=orthogonalEdgeStyle;rounded=0;orthogonalLoop=1;jettySize=auto;html=1;exitX=1;exitY=0.5;exitDx=0;exitDy=0;entryX=0;entryY=0.5;entryDx=0;entryDy=0;" edge="1" parent="1" source="x7zrCxfJBzDlaxN9OBmy-3" target="x7zrCxfJBzDlaxN9OBmy-5">
          <mxGeometry relative="1" as="geometry" />
        </mxCell>
        <mxCell id="x7zrCxfJBzDlaxN9OBmy-3" value="CIDR&lt;br&gt;192.168.1.0/24" style="rounded=0;whiteSpace=wrap;html=1;" vertex="1" parent="1">
          <mxGeometry x="510" y="240" width="120" height="60" as="geometry" />
        </mxCell>
        <mxCell id="x7zrCxfJBzDlaxN9OBmy-13" style="edgeStyle=orthogonalEdgeStyle;rounded=0;orthogonalLoop=1;jettySize=auto;html=1;exitX=1;exitY=0.5;exitDx=0;exitDy=0;entryX=0;entryY=0.5;entryDx=0;entryDy=0;" edge="1" parent="1" source="x7zrCxfJBzDlaxN9OBmy-4" target="x7zrCxfJBzDlaxN9OBmy-6">
          <mxGeometry relative="1" as="geometry" />
        </mxCell>
        <mxCell id="x7zrCxfJBzDlaxN9OBmy-4" value="Subnet 1&lt;br&gt;192.168.100.1" style="rounded=0;whiteSpace=wrap;html=1;" vertex="1" parent="1">
          <mxGeometry x="720" y="160" width="120" height="60" as="geometry" />
        </mxCell>
        <mxCell id="x7zrCxfJBzDlaxN9OBmy-12" style="edgeStyle=orthogonalEdgeStyle;rounded=0;orthogonalLoop=1;jettySize=auto;html=1;exitX=1;exitY=0.5;exitDx=0;exitDy=0;entryX=0;entryY=0.5;entryDx=0;entryDy=0;" edge="1" parent="1" source="x7zrCxfJBzDlaxN9OBmy-5" target="x7zrCxfJBzDlaxN9OBmy-7">
          <mxGeometry relative="1" as="geometry" />
        </mxCell>
        <mxCell id="x7zrCxfJBzDlaxN9OBmy-5" value="Subnet 2&lt;br&gt;192.168.200.1" style="rounded=0;whiteSpace=wrap;html=1;" vertex="1" parent="1">
          <mxGeometry x="720" y="310" width="120" height="60" as="geometry" />
        </mxCell>
        <mxCell id="x7zrCxfJBzDlaxN9OBmy-6" value="Host&lt;br&gt;192.168.100.2" style="rounded=0;whiteSpace=wrap;html=1;" vertex="1" parent="1">
          <mxGeometry x="880" y="160" width="120" height="60" as="geometry" />
        </mxCell>
        <mxCell id="x7zrCxfJBzDlaxN9OBmy-7" value="Host&lt;br&gt;192.168.100.2" style="rounded=0;whiteSpace=wrap;html=1;" vertex="1" parent="1">
          <mxGeometry x="880" y="310" width="120" height="60" as="geometry" />
        </mxCell>
      </root>
    </mxGraphModel>
  </diagram>
</mxfile>
